<?xml version="1.0" standalone="no"?>
<!DOCTYPE svg PUBLIC "-//W3C//DTD SVG 20010904//EN"
 "http://www.w3.org/TR/2001/REC-SVG-20010904/DTD/svg10.dtd">
<svg version="1.0" xmlns="http://www.w3.org/2000/svg"
 width="500.000000pt" height="500.000000pt" viewBox="0 0 500.000000 500.000000"
 preserveAspectRatio="xMidYMid meet">

<g transform="translate(0.000000,500.000000) scale(0.100000,-0.100000)"
fill="#000000" stroke="none">
<path d="M2325 4783 c-436 -38 -856 -197 -1198 -454 -478 -359 -796 -891 -887
-1483 -19 -130 -20 -176 -20 -1296 0 -1027 2 -1165 16 -1198 33 -81 111 -131
202 -132 91 0 161 42 205 125 l22 40 5 1185 c5 1184 5 1185 28 1285 32 140 58
225 105 340 229 564 731 982 1327 1104 182 38 288 41 1262 41 l948 0 0 -937
c0 -964 -4 -1082 -41 -1266 -75 -373 -290 -747 -571 -995 -147 -129 -246 -196
-409 -277 -248 -122 -456 -177 -736 -194 -153 -10 -174 -15 -227 -62 -59 -51
-79 -100 -74 -179 4 -80 35 -134 100 -177 38 -26 51 -28 151 -31 293 -10 668
79 972 228 600 295 1047 843 1210 1485 72 284 70 238 70 1530 l0 1160 -22 42
c-27 51 -82 96 -132 112 -28 8 -342 11 -1152 9 -613 -1 -1132 -3 -1154 -5z"/>
<path d="M2319 3745 c-118 -16 -281 -70 -402 -132 -331 -171 -571 -491 -647
-863 -20 -98 -20 -129 -20 -1231 0 -920 3 -1136 14 -1162 34 -83 115 -137 204
-137 91 0 161 43 205 125 21 39 22 51 25 472 l3 433 454 0 c268 0 485 4 531
11 167 23 372 103 527 206 99 66 261 230 330 334 99 150 164 313 199 497 10
50 13 226 13 682 0 610 0 615 -22 655 -27 51 -57 79 -113 104 -44 20 -62 21
-625 20 -419 -1 -607 -5 -676 -14z m986 -895 c0 -439 -1 -458 -22 -540 -73
-276 -275 -487 -558 -581 -69 -23 -79 -24 -547 -27 l-478 -3 0 459 c0 425 1
465 20 538 77 304 331 542 639 598 58 11 177 14 511 13 l435 -2 0 -455z"/>
</g>
</svg>
